<svg viewBox="148.575 28.575 342.85 342.85" preserveAspectRatio="xMidYMid meet" xmlns="http://www.w3.org/2000/svg" xmlns:xlink="http://www.w3.org/1999/xlink"><g id="tight-bounds" transform="matrix(1,0,0,1,148.57422074112307,28.57422074112307)"><svg viewBox="0 0 342.85155851775386 342.85155851775386" height="342.85155851775386" width="342.85155851775386"><g><svg></svg></g><g><svg viewBox="0 0 342.85155851775386 342.85155851775386" height="342.85155851775386" width="342.85155851775386"><g><path d="M0 171.426c0-94.676 76.75-171.426 171.426-171.426 94.676 0 171.426 76.75 171.426 171.426 0 94.676-76.75 171.426-171.426 171.426-94.676 0-171.426-76.75-171.426-171.426zM171.426 337.459c91.698 0 166.033-74.336 166.033-166.033 0-91.698-74.336-166.033-166.033-166.033-91.698 0-166.033 74.336-166.033 166.033 0 91.698 74.336 166.033 166.033 166.033z" data-fill-palette-color="tertiary" fill="#2e963d" stroke="transparent"></path><ellipse rx="164.56874808852186" ry="164.56874808852186" cx="171.42577925887693" cy="171.42577925887693" fill="#2e963d" stroke="transparent" stroke-width="0" fill-opacity="1" data-fill-palette-color="tertiary"></ellipse></g><g transform="matrix(1,0,0,1,64.84655864529837,93.14822810939748)"><svg viewBox="0 0 213.1584412271571 156.5551022989589" height="156.5551022989589" width="213.1584412271571"><g><svg viewBox="0 0 213.1584412271571 156.5551022989589" height="156.5551022989589" width="213.1584412271571"><g transform="matrix(1,0,0,1,0,96.7573338999671)"><svg viewBox="0 0 213.1584412271571 59.79776839899182" height="59.79776839899182" width="213.1584412271571"><g id="textblocktransform"><svg viewBox="0 0 213.1584412271571 59.79776839899182" height="59.79776839899182" width="213.1584412271571" id="textblock"><g><svg viewBox="0 0 213.1584412271571 59.79776839899182" height="59.79776839899182" width="213.1584412271571"><g transform="matrix(1,0,0,1,0,0)"><svg width="213.1584412271571" viewBox="3.5 -33.95000076293945 122.7923812866211 34.45000076293945" height="59.79776839899182" data-palette-color="#ffffff"><path d="M3.5 0L3.5-33.85Q3.85-33.85 5-33.88 6.15-33.9 7.6-33.9 9.05-33.9 10.6-33.93 12.15-33.95 13.3-33.95L13.3-33.95Q21.8-33.95 25.9-29.73 30-25.5 30-17.15L30-17.15Q30-8.8 25.8-4.35 21.6 0.1 12.65 0.1L12.65 0.1Q11.1 0.1 9.63 0.08 8.15 0.05 6.93 0.05 5.7 0.05 4.8 0.03 3.9 0 3.5 0L3.5 0ZM12.6-29.5Q11.45-29.5 10.68-29.48 9.9-29.45 9.45-29.45L9.45-29.45 9.45-4.4Q10-4.35 10.88-4.35 11.75-4.35 13.4-4.35L13.4-4.35Q18.65-4.35 21.1-7.43 23.55-10.5 23.55-16.6L23.55-16.6Q23.55-19.5 22.98-21.88 22.4-24.25 21.08-25.95 19.75-27.65 17.68-28.58 15.6-29.5 12.6-29.5L12.6-29.5ZM45.3-25.5Q51.05-25.5 53.65-22.1 56.25-18.7 56.25-12.75L56.25-12.75Q56.25-9.95 55.55-7.53 54.85-5.1 53.42-3.33 52-1.55 49.85-0.53 47.7 0.5 44.85 0.5L44.85 0.5Q42 0.5 39.92-0.38 37.85-1.25 36.5-2.9 35.15-4.55 34.52-6.9 33.9-9.25 33.9-12.2L33.9-12.2Q33.9-15.05 34.6-17.48 35.3-19.9 36.72-21.68 38.15-23.45 40.3-24.48 42.45-25.5 45.3-25.5L45.3-25.5ZM44.8-21.3Q43.35-21.3 42.42-20.65 41.5-20 40.97-18.82 40.45-17.65 40.25-16.07 40.05-14.5 40.05-12.7L40.05-12.7Q40.05-10.85 40.27-9.2 40.5-7.55 41.1-6.33 41.7-5.1 42.72-4.4 43.75-3.7 45.35-3.7L45.35-3.7Q46.8-3.7 47.72-4.35 48.65-5 49.17-6.18 49.7-7.35 49.9-8.9 50.1-10.45 50.1-12.25L50.1-12.25Q50.1-14.1 49.87-15.75 49.65-17.4 49.05-18.65 48.45-19.9 47.42-20.6 46.4-21.3 44.8-21.3L44.8-21.3ZM75.65-24.9L81.45-24.9 81.55-24.5Q81.59-24.05 81.7-23.33 81.8-22.6 81.87-21.68 81.95-20.75 81.95-19.8L81.95-19.8Q81.95-14.25 81.12-10.43 80.3-6.6 78.62-4.23 76.95-1.85 74.37-0.8 71.8 0.25 68.3 0.25L68.3 0.25Q64.34 0.25 62.67-2.02 61-4.3 61-8.3L61-8.3 61-24.9 66.7-24.9 66.7-8.45Q66.7-6.35 67.45-5.05 68.2-3.75 70-3.75L70-3.75Q71.8-3.75 73-5.1 74.2-6.45 74.9-8.63 75.59-10.8 75.9-13.58 76.2-16.35 76.2-19.2L76.2-19.2Q76.2-20.25 76.12-21.28 76.05-22.3 75.92-23.1 75.8-23.9 75.75-24.4L75.75-24.4 75.65-24.9ZM85.94-11.85Q85.94-15.2 86.87-17.75 87.79-20.3 89.42-22.03 91.04-23.75 93.24-24.63 95.44-25.5 97.99-25.5L97.99-25.5Q100.24-25.5 101.82-24.95 103.39-24.4 104.39-23.45 105.39-22.5 105.87-21.2 106.34-19.9 106.34-18.4L106.34-18.4Q106.34-16.6 105.34-14.98 104.34-13.35 102.47-12.13 100.59-10.9 97.94-10.18 95.29-9.45 91.99-9.4L91.99-9.4Q92.14-8.25 92.47-7.23 92.79-6.2 93.42-5.43 94.04-4.65 95.04-4.2 96.04-3.75 97.54-3.75L97.54-3.75Q98.64-3.75 99.89-4 101.14-4.25 102.19-4.6L102.19-4.6Q103.44-5 104.64-5.5L104.64-5.5 106.14-1.95Q104.84-1.3 103.34-0.8L103.34-0.8Q102.04-0.35 100.34 0 98.64 0.35 96.74 0.35L96.74 0.35Q93.84 0.35 91.79-0.53 89.74-1.4 88.44-3 87.14-4.6 86.54-6.85 85.94-9.1 85.94-11.85L85.94-11.85ZM97.54-21.6Q95.89-21.6 94.82-20.83 93.74-20.05 93.09-18.82 92.44-17.6 92.17-16.07 91.89-14.55 91.84-13L91.84-13Q94.24-13.1 95.92-13.63 97.59-14.15 98.64-14.93 99.69-15.7 100.17-16.6 100.64-17.5 100.64-18.4L100.64-18.4Q100.64-19.85 99.79-20.73 98.94-21.6 97.54-21.6L97.54-21.6ZM122.24-19.7Q121.34-19.7 120.44-19.25 119.54-18.8 118.84-18.03 118.14-17.25 117.69-16.15 117.24-15.05 117.24-13.7L117.24-13.7 117.24 0 111.54 0 111.54-12.6Q111.54-15.6 111.14-17.63 110.74-19.65 110.29-20.9L110.29-20.9Q109.74-22.35 109.09-23.25L109.09-23.25 113.59-25.05Q114.04-24.5 114.54-23.7L114.54-23.7Q114.94-23 115.34-22.05 115.74-21.1 115.99-19.8L115.99-19.8Q116.99-22.7 118.89-23.98 120.79-25.25 123.19-25.25L123.19-25.25Q124.34-25.25 125.34-24.98 126.34-24.7 126.29-24.7L126.29-24.7 124.69-19.15Q124.74-19.15 124.12-19.43 123.49-19.7 122.24-19.7L122.24-19.7Z" opacity="1" transform="matrix(1,0,0,1,0,0)" fill="#ffffff" class="wordmark-text-0" data-fill-palette-color="quaternary" id="text-0"></path></svg></g></svg></g></svg></g></svg></g><g transform="matrix(1,0,0,1,48.73111250278995,0)"><svg viewBox="0 0 115.69621622157722 82.6405159274067" height="82.6405159274067" width="115.69621622157722"><g><svg xmlns="http://www.w3.org/2000/svg" xmlns:xlink="http://www.w3.org/1999/xlink" version="1.1" x="0" y="0" viewBox="5 17.85700035095215 90 64.28599548339844" enable-background="new 0 0 100 100" xml:space="preserve" height="82.6405159274067" width="115.69621622157722" class="icon-icon-0" data-fill-palette-color="quaternary" id="icon-0"><rect x="82.143" y="43.571" width="12.857" height="12.857" fill="#ffffff" data-fill-palette-color="quaternary"></rect><rect x="5" y="17.857" width="12.857" height="12.857" fill="#ffffff" data-fill-palette-color="quaternary"></rect><polyline points="69.286,82.143 69.286,17.857 30.714,17.857 30.714,82.143 " fill="#ffffff" data-fill-palette-color="quaternary"></polyline><polyline points="95,82.143 95,69.286 82.143,69.286 82.143,82.143 " fill="#ffffff" data-fill-palette-color="quaternary"></polyline><rect x="82.143" y="17.857" width="12.857" height="12.857" fill="#ffffff" data-fill-palette-color="quaternary"></rect><rect x="5" y="43.571" width="12.857" height="12.857" fill="#ffffff" data-fill-palette-color="quaternary"></rect><polyline points="17.857,82.143 17.857,69.286 5,69.286 5,82.143 " fill="#ffffff" data-fill-palette-color="quaternary"></polyline></svg></g></svg></g><g></g></svg></g></svg></g></svg></g><defs></defs></svg><rect width="342.85155851775386" height="342.85155851775386" fill="none" stroke="none" visibility="hidden"></rect></g></svg>